<?xml version="1.0" standalone="no"?>
<!DOCTYPE svg PUBLIC "-//W3C//DTD SVG 20010904//EN"
 "http://www.w3.org/TR/2001/REC-SVG-20010904/DTD/svg10.dtd">
<svg version="1.0" xmlns="http://www.w3.org/2000/svg"
 width="512.000000pt" height="512.000000pt" viewBox="0 0 512.000000 512.000000"
 preserveAspectRatio="xMidYMid meet">
<metadata>
Created by potrace 1.11, written by Peter Selinger 2001-2013
</metadata>
<g transform="translate(0.000000,512.000000) scale(0.100000,-0.100000)"
fill="#000000" stroke="none">
<path d="M280 3640 c0 -10 50 -28 55 -20 3 5 23 0 45 -11 21 -10 44 -19 50
-19 10 0 14 -2 86 -39 81 -41 90 -46 129 -76 59 -44 165 -148 165 -162 0 -7 4
-13 9 -13 10 0 97 -125 132 -190 13 -25 26 -47 29 -50 7 -7 23 -37 102 -188
68 -131 190 -354 229 -417 10 -16 22 -37 26 -45 6 -13 36 -57 137 -205 22 -33
49 -67 58 -76 10 -9 18 -20 18 -23 0 -4 6 -13 13 -20 6 -7 37 -42 67 -77 61
-70 266 -279 275 -279 3 0 13 -8 23 -17 10 -10 35 -31 56 -48 21 -16 45 -36
52 -42 7 -7 17 -13 21 -13 5 0 18 -8 29 -17 56 -50 239 -136 324 -153 3 -1 30
-7 60 -14 87 -20 255 -11 287 16 7 6 13 8 13 5 0 -3 14 -1 30 4 17 6 30 15 30
21 0 5 4 7 9 4 9 -6 83 45 126 88 12 11 44 39 70 61 26 22 57 48 69 58 11 11
41 35 65 55 24 21 49 42 55 47 40 36 44 37 78 18 18 -10 35 -20 38 -23 3 -3
84 -52 180 -110 96 -58 177 -108 180 -111 3 -4 15 -9 28 -13 12 -4 22 -12 22
-17 0 -5 4 -9 10 -9 5 0 33 -15 62 -33 29 -18 65 -39 81 -46 15 -8 27 -18 27
-23 0 -4 4 -8 10 -8 5 0 39 -18 76 -41 89 -54 113 -51 135 16 16 45 231 703
234 715 1 3 7 26 15 53 7 26 17 47 22 47 5 0 6 5 3 10 -3 5 -3 16 2 22 4 7 9
20 10 29 1 9 8 29 14 45 7 16 11 33 10 38 -1 4 3 14 9 20 5 7 7 16 3 19 -3 4
-2 7 3 7 5 0 10 8 11 18 1 9 18 64 38 122 20 58 38 112 39 120 2 8 30 94 61
190 31 96 84 258 116 360 33 102 63 192 66 200 4 8 7 17 8 20 1 3 6 20 10 38
4 17 11 32 15 32 5 0 6 9 3 20 -3 12 0 20 6 20 7 0 10 4 7 8 -2 4 -1 14 4 21
11 18 -18 50 -41 45 -11 -2 -29 -7 -41 -10 -13 -3 -27 -6 -33 -7 -5 -2 -23 -8
-40 -14 -16 -6 -61 -21 -100 -33 -516 -161 -785 -246 -815 -257 -8 -4 -19 -5
-24 -4 -4 1 -14 -4 -22 -10 -8 -6 -14 -8 -14 -4 0 4 -7 2 -15 -5 -8 -7 -15 -9
-15 -5 0 4 -7 2 -15 -5 -8 -7 -15 -10 -15 -7 0 4 -19 -1 -42 -9 -24 -9 -50
-17 -58 -19 -8 -2 -34 -10 -58 -19 -23 -8 -44 -15 -47 -16 -12 -1 -27 -5 -59
-19 -16 -6 -31 -9 -34 -6 -3 2 -10 1 -16 -3 -6 -5 -30 -15 -54 -22 -49 -15
-64 -35 -51 -67 9 -24 25 -24 99 -3 25 8 47 14 50 15 15 3 280 89 305 98 17 7
35 13 40 13 6 1 12 3 15 4 3 1 12 3 20 5 8 2 32 10 53 19 20 9 37 13 37 10 0
-4 7 -1 15 6 8 7 15 10 15 7 0 -3 29 5 65 18 36 13 65 22 65 20 0 -2 16 3 35
11 19 8 35 11 35 8 0 -4 6 -2 13 4 11 8 254 88 300 97 9 2 23 7 30 11 8 5 9 4
2 -3 -5 -6 -37 -25 -70 -43 -33 -19 -73 -41 -90 -51 -16 -10 -47 -27 -67 -36
-21 -10 -38 -21 -38 -25 0 -5 -7 -8 -15 -8 -8 0 -15 -5 -15 -12 0 -6 -3 -9 -6
-5 -4 3 -26 -7 -50 -24 -24 -16 -44 -27 -44 -24 0 4 -12 -3 -26 -14 -14 -11
-46 -30 -72 -42 -26 -13 -51 -27 -57 -32 -5 -4 -139 -82 -297 -171 -158 -90
-294 -169 -303 -176 -8 -7 -15 -9 -15 -4 0 5 -4 4 -8 -1 -4 -6 -153 -94 -331
-195 l-324 -184 -31 19 c-17 9 -51 28 -76 42 -25 13 -52 28 -60 33 -40 26
-213 120 -221 120 -5 0 -9 5 -9 10 0 6 -4 10 -9 10 -5 0 -35 15 -66 32 -48 28
-53 34 -40 44 9 7 32 15 52 19 19 3 47 11 62 17 30 13 51 19 69 20 6 1 12 4
12 8 0 4 6 7 13 7 16 0 277 82 299 94 10 5 26 9 36 9 40 0 59 60 25 78 -16 8
-121 -17 -193 -45 -20 -8 -21 -8 -55 -18 -16 -4 -36 -12 -42 -18 -7 -5 -13 -7
-13 -3 0 3 -17 -1 -37 -9 -21 -9 -39 -16 -40 -16 -2 1 -4 1 -5 0 -13 -4 -45
-10 -55 -11 -7 -1 -13 -6 -13 -11 0 -6 -3 -8 -6 -4 -4 3 -22 0 -40 -8 -19 -8
-34 -11 -34 -8 0 3 -7 0 -15 -7 -8 -7 -15 -9 -15 -5 0 4 -6 3 -12 -2 -7 -6
-26 -14 -43 -18 -44 -12 -45 -12 -50 -15 -3 -1 -8 -3 -12 -4 -38 -9 -49 -18
-48 -42 0 -22 37 -63 57 -64 4 0 45 -22 92 -50 47 -28 89 -50 95 -50 6 0 11
-4 11 -10 0 -5 4 -10 9 -10 5 0 95 -49 201 -110 107 -60 199 -110 206 -110 10
0 48 -95 59 -150 1 -4 16 -55 31 -105 2 -5 9 -30 16 -55 7 -25 15 -47 18 -50
3 -3 7 -16 9 -30 1 -14 7 -33 12 -42 5 -9 10 -28 11 -42 1 -15 6 -26 11 -26 5
0 7 -6 4 -14 -3 -7 0 -19 6 -25 6 -6 7 -11 3 -11 -5 0 -4 -6 1 -12 24 -30 38
-152 21 -175 -6 -7 -3 -15 9 -22 15 -10 14 -10 -8 -6 -14 4 -34 8 -45 10 -10
2 -19 4 -19 5 0 1 -7 3 -15 5 -29 5 -155 67 -198 96 -24 16 -46 29 -49 29 -9
0 -115 81 -146 112 -15 16 -30 28 -33 28 -8 0 -170 164 -234 236 -80 90 -270
339 -270 353 0 5 -3 11 -7 13 -9 4 -70 95 -187 278 -47 74 -96 148 -108 164
-13 16 -25 34 -27 40 -2 6 -7 13 -10 16 -12 10 -81 98 -81 104 0 3 -10 16 -22
28 -13 13 -42 46 -66 74 -65 78 -264 274 -278 274 -7 0 -88 64 -92 73 -2 4 -9
7 -16 7 -7 0 -21 8 -32 18 -26 23 -207 114 -256 127 -5 2 -10 4 -13 5 -3 1 -8
3 -12 4 -5 2 -28 8 -53 16 -25 7 -58 14 -75 16 -16 1 -30 3 -30 4 0 1 -37 3
-82 4 -46 1 -83 -1 -83 -4z m4457 -197 c-4 -7 -99 -300 -102 -313 -1 -8 -36
-114 -42 -130 -4 -8 -7 -18 -8 -22 -2 -5 -3 -9 -5 -10 -1 -2 -3 -11 -5 -21 -2
-10 -7 -26 -11 -35 -4 -9 -8 -22 -10 -29 -6 -29 -27 -89 -35 -99 -5 -6 -6 -13
-3 -16 3 -4 -2 -20 -10 -37 -9 -17 -16 -33 -16 -36 -1 -6 -1 -8 -31 -100 -13
-38 -24 -74 -25 -80 -1 -5 -18 -57 -37 -115 -47 -141 -170 -522 -173 -535 -1
-5 -8 -23 -14 -40 -7 -16 -14 -37 -15 -45 -3 -16 -81 -256 -91 -280 -4 -8 -9
-26 -11 -40 -2 -13 -6 -27 -8 -29 -7 -6 -95 43 -95 52 0 5 -4 5 -10 2 -5 -3
-10 -2 -10 2 0 5 -21 20 -47 33 -27 14 -50 28 -53 31 -3 3 -102 63 -220 134
-118 72 -217 133 -218 137 -2 5 -8 6 -13 2 -5 -3 -9 -1 -9 4 0 5 -13 15 -30
22 -16 7 -30 17 -30 23 0 6 -3 8 -6 4 -4 -3 -27 8 -53 26 -25 17 -48 31 -51
30 -3 -1 -13 5 -22 14 -9 8 -30 22 -46 31 -96 55 -192 116 -192 123 0 4 44 40
97 81 127 96 133 100 155 121 10 9 23 17 28 17 6 0 13 7 16 15 4 8 10 15 15
15 8 0 156 113 190 145 9 8 21 15 27 15 5 0 12 3 14 8 2 4 37 33 78 64 41 32
80 61 85 66 6 4 48 37 95 72 47 36 90 69 96 75 6 5 27 21 47 35 20 14 37 28
37 33 0 4 6 7 14 7 8 0 16 4 18 8 2 4 82 68 178 141 96 74 180 140 187 148 6
8 15 15 20 15 9 1 94 67 105 83 5 7 8 7 8 0 0 -6 4 -5 8 1 7 12 232 184 239
184 2 0 2 -3 0 -7z m-1769 -1439 c12 -8 32 -21 45 -27 12 -7 54 -33 92 -57 39
-25 73 -44 78 -42 20 6 2 -20 -34 -50 -23 -18 -53 -44 -68 -58 -14 -14 -46
-41 -71 -61 -25 -20 -56 -46 -69 -58 -13 -11 -26 -21 -28 -21 -4 0 5 197 12
250 2 19 5 59 6 87 1 29 5 53 8 53 4 0 17 -7 29 -16z"/>
</g>
</svg>
